%TF.GenerationSoftware,KiCad,Pcbnew,8.0.7*%
%TF.CreationDate,2025-01-10T08:42:05-05:00*%
%TF.ProjectId,esc,6573632e-6b69-4636-9164-5f7063625858,rev?*%
%TF.SameCoordinates,Original*%
%TF.FileFunction,Copper,L2,Inr*%
%TF.FilePolarity,Positive*%
%FSLAX46Y46*%
G04 Gerber Fmt 4.6, Leading zero omitted, Abs format (unit mm)*
G04 Created by KiCad (PCBNEW 8.0.7) date 2025-01-10 08:42:05*
%MOMM*%
%LPD*%
G01*
G04 APERTURE LIST*
%TA.AperFunction,ComponentPad*%
%ADD10C,1.600000*%
%TD*%
%TA.AperFunction,ComponentPad*%
%ADD11O,1.600000X1.600000*%
%TD*%
%TA.AperFunction,ComponentPad*%
%ADD12R,2.600000X2.600000*%
%TD*%
%TA.AperFunction,ComponentPad*%
%ADD13C,2.600000*%
%TD*%
%TA.AperFunction,ComponentPad*%
%ADD14C,2.300000*%
%TD*%
%TA.AperFunction,ComponentPad*%
%ADD15R,2.300000X2.300000*%
%TD*%
%TA.AperFunction,ComponentPad*%
%ADD16R,1.600000X1.600000*%
%TD*%
%TA.AperFunction,ComponentPad*%
%ADD17C,1.400000*%
%TD*%
%TA.AperFunction,ComponentPad*%
%ADD18O,1.400000X1.400000*%
%TD*%
%TA.AperFunction,ComponentPad*%
%ADD19O,1.700000X1.700000*%
%TD*%
%TA.AperFunction,ComponentPad*%
%ADD20R,1.700000X1.700000*%
%TD*%
%TA.AperFunction,ComponentPad*%
%ADD21O,1.905000X2.000000*%
%TD*%
%TA.AperFunction,ComponentPad*%
%ADD22R,1.905000X2.000000*%
%TD*%
%TA.AperFunction,ComponentPad*%
%ADD23O,1.050000X1.500000*%
%TD*%
%TA.AperFunction,ComponentPad*%
%ADD24R,1.050000X1.500000*%
%TD*%
%TA.AperFunction,ViaPad*%
%ADD25C,0.600000*%
%TD*%
G04 APERTURE END LIST*
D10*
%TO.N,W_LO*%
%TO.C,R34*%
X35306000Y-118110000D03*
D11*
%TO.N,Net-(R34-Pad2)*%
X35306000Y-110490000D03*
%TD*%
D10*
%TO.N,W_HI*%
%TO.C,R33*%
X35306000Y-108204000D03*
D11*
%TO.N,Net-(R33-Pad2)*%
X35306000Y-100584000D03*
%TD*%
D10*
%TO.N,V_LO*%
%TO.C,R30*%
X35306000Y-98044000D03*
D11*
%TO.N,Net-(R30-Pad2)*%
X35306000Y-90424000D03*
%TD*%
D10*
%TO.N,V_HI*%
%TO.C,R29*%
X35306000Y-87884000D03*
D11*
%TO.N,Net-(R29-Pad2)*%
X35306000Y-80264000D03*
%TD*%
D10*
%TO.N,U_LO*%
%TO.C,R26*%
X35306000Y-77724000D03*
D11*
%TO.N,Net-(R26-Pad2)*%
X35306000Y-70104000D03*
%TD*%
D10*
%TO.N,U_HI*%
%TO.C,R27*%
X35306000Y-67564000D03*
D11*
%TO.N,Net-(R27-Pad2)*%
X35306000Y-59944000D03*
%TD*%
D12*
%TO.N,+12V*%
%TO.C,J3*%
X117856000Y-100894000D03*
D13*
%TO.N,GND*%
X117856000Y-104394000D03*
%TD*%
D14*
%TO.N,W*%
%TO.C,J2*%
X117856000Y-93726000D03*
%TO.N,V*%
X117856000Y-90226000D03*
D15*
%TO.N,U*%
X117856000Y-86726000D03*
%TD*%
D10*
%TO.N,+12V*%
%TO.C,C12*%
X80264000Y-120904000D03*
%TO.N,GND*%
X85264000Y-120904000D03*
%TD*%
%TO.N,+5V*%
%TO.C,C18*%
X97068000Y-38100000D03*
%TO.N,GND*%
X102068000Y-38100000D03*
%TD*%
%TO.N,+5V*%
%TO.C,C17*%
X102402000Y-125730000D03*
%TO.N,GND*%
X107402000Y-125730000D03*
%TD*%
%TO.N,GND*%
%TO.C,C16*%
X88098000Y-130048000D03*
%TO.N,+5V*%
X83098000Y-130048000D03*
%TD*%
%TO.N,GND*%
%TO.C,C14*%
X75224000Y-130048000D03*
%TO.N,+12V*%
X80224000Y-130048000D03*
%TD*%
%TO.N,GND*%
%TO.C,C9*%
X57658000Y-105450000D03*
%TO.N,+5V*%
X57658000Y-110450000D03*
%TD*%
%TO.N,+12V*%
%TO.C,C8*%
X80050000Y-98552000D03*
%TO.N,GND*%
X85050000Y-98552000D03*
%TD*%
%TO.N,+5V*%
%TO.C,C5*%
X57404000Y-66254000D03*
%TO.N,GND*%
X57404000Y-61254000D03*
%TD*%
%TO.N,+5V*%
%TO.C,C4*%
X57404000Y-88606000D03*
%TO.N,GND*%
X57404000Y-83606000D03*
%TD*%
%TO.N,+12V*%
%TO.C,C3*%
X79771113Y-75946000D03*
%TO.N,GND*%
X84771113Y-75946000D03*
%TD*%
%TO.N,GND*%
%TO.C,C15*%
X68890000Y-134874000D03*
D16*
%TO.N,+5V*%
X72390000Y-134874000D03*
%TD*%
D10*
%TO.N,GND*%
%TO.C,C13*%
X35281113Y-127254000D03*
D16*
%TO.N,Net-(Q7-B)*%
X37781113Y-127254000D03*
%TD*%
%TO.N,Net-(D3-K)*%
%TO.C,C11*%
X75881113Y-117602000D03*
D10*
%TO.N,W*%
X73381113Y-117602000D03*
%TD*%
D16*
%TO.N,+12V*%
%TO.C,C10*%
X75946000Y-109220000D03*
D10*
%TO.N,GND*%
X73446000Y-109220000D03*
%TD*%
D16*
%TO.N,Net-(D2-K)*%
%TO.C,C7*%
X75881113Y-87122000D03*
D10*
%TO.N,V*%
X73381113Y-87122000D03*
%TD*%
D16*
%TO.N,+12V*%
%TO.C,C6*%
X75881113Y-96012000D03*
D10*
%TO.N,GND*%
X73381113Y-96012000D03*
%TD*%
D16*
%TO.N,Net-(D1-K)*%
%TO.C,C2*%
X75881113Y-64516000D03*
D10*
%TO.N,U*%
X73381113Y-64516000D03*
%TD*%
D16*
%TO.N,+12V*%
%TO.C,C1*%
X75881113Y-73406000D03*
D10*
%TO.N,GND*%
X73381113Y-73406000D03*
%TD*%
%TO.N,+5V*%
%TO.C,R24*%
X76723000Y-52578000D03*
D11*
%TO.N,Net-(R24-Pad2)*%
X69103000Y-52578000D03*
%TD*%
D17*
%TO.N,Net-(R46-Pad1)*%
%TO.C,R46*%
X46801000Y-36068000D03*
D18*
%TO.N,GND_EXT*%
X49341000Y-36068000D03*
%TD*%
D17*
%TO.N,Net-(R45-Pad1)*%
%TO.C,R45*%
X57723000Y-36068000D03*
D18*
%TO.N,GND_EXT*%
X60263000Y-36068000D03*
%TD*%
D17*
%TO.N,Net-(R44-Pad1)*%
%TO.C,R44*%
X68899000Y-36068000D03*
D18*
%TO.N,GND_EXT*%
X71439000Y-36068000D03*
%TD*%
D17*
%TO.N,Net-(R43-Pad1)*%
%TO.C,R43*%
X51881000Y-36068000D03*
D18*
%TO.N,U_SENSE*%
X54421000Y-36068000D03*
%TD*%
D17*
%TO.N,Net-(R42-Pad1)*%
%TO.C,R42*%
X62803000Y-36068000D03*
D18*
%TO.N,V_SENSE*%
X65343000Y-36068000D03*
%TD*%
D17*
%TO.N,Net-(R41-Pad1)*%
%TO.C,R41*%
X73979000Y-36068000D03*
D18*
%TO.N,W_SENSE*%
X76519000Y-36068000D03*
%TD*%
D19*
%TO.N,U_HI*%
%TO.C,J1*%
X34290000Y-55626000D03*
%TO.N,U_LO*%
X34290000Y-53086000D03*
%TO.N,V_HI*%
X34290000Y-50546000D03*
%TO.N,V_LO*%
X34290000Y-48006000D03*
%TO.N,W_HI*%
X34290000Y-45466000D03*
%TO.N,W_LO*%
X34290000Y-42926000D03*
%TO.N,W_SENSE*%
X34290000Y-40386000D03*
%TO.N,V_SENSE*%
X34290000Y-37846000D03*
%TO.N,U_SENSE*%
X34290000Y-35306000D03*
D20*
%TO.N,GND_EXT*%
X34290000Y-32766000D03*
%TD*%
D17*
%TO.N,GND*%
%TO.C,R52*%
X50292000Y-117552000D03*
D18*
%TO.N,Net-(U3-LIN)*%
X50292000Y-115012000D03*
%TD*%
D17*
%TO.N,GND*%
%TO.C,R51*%
X50292000Y-107646000D03*
D18*
%TO.N,Net-(U3-HIN)*%
X50292000Y-105106000D03*
%TD*%
D17*
%TO.N,GND*%
%TO.C,R50*%
X50292000Y-97486000D03*
D18*
%TO.N,Net-(U2-LIN)*%
X50292000Y-94946000D03*
%TD*%
D17*
%TO.N,GND*%
%TO.C,R49*%
X50292000Y-87580000D03*
D18*
%TO.N,Net-(U2-HIN)*%
X50292000Y-85040000D03*
%TD*%
D17*
%TO.N,GND*%
%TO.C,R48*%
X50292000Y-77420000D03*
D18*
%TO.N,Net-(U1-LIN)*%
X50292000Y-74880000D03*
%TD*%
D17*
%TO.N,GND*%
%TO.C,R47*%
X50292000Y-67514000D03*
D18*
%TO.N,Net-(U1-HIN)*%
X50292000Y-64974000D03*
%TD*%
D17*
%TO.N,GND*%
%TO.C,R36*%
X50292000Y-112726000D03*
D18*
%TO.N,Net-(R36-Pad2)*%
X50292000Y-110186000D03*
%TD*%
D17*
%TO.N,GND*%
%TO.C,R35*%
X50292000Y-102566000D03*
D18*
%TO.N,Net-(R35-Pad2)*%
X50292000Y-100026000D03*
%TD*%
D17*
%TO.N,GND*%
%TO.C,R32*%
X50292000Y-92660000D03*
D18*
%TO.N,Net-(R32-Pad2)*%
X50292000Y-90120000D03*
%TD*%
%TO.N,Net-(R31-Pad2)*%
%TO.C,R31*%
X50292000Y-79960000D03*
D17*
%TO.N,GND*%
X50292000Y-82500000D03*
%TD*%
D18*
%TO.N,Net-(R28-Pad2)*%
%TO.C,R28*%
X50292000Y-69800000D03*
D17*
%TO.N,GND*%
X50292000Y-72340000D03*
%TD*%
D18*
%TO.N,Net-(R25-Pad2)*%
%TO.C,R25*%
X50292000Y-62534000D03*
D17*
%TO.N,GND*%
X50292000Y-59994000D03*
%TD*%
D10*
%TO.N,+5V*%
%TO.C,R12*%
X46243000Y-52578000D03*
D11*
%TO.N,Net-(R12-Pad2)*%
X53863000Y-52578000D03*
%TD*%
%TO.N,Net-(R46-Pad1)*%
%TO.C,U7*%
X47777000Y-40401000D03*
%TO.N,Net-(R43-Pad1)*%
X50317000Y-40401000D03*
%TO.N,GND_EXT*%
X52857000Y-40401000D03*
%TO.N,unconnected-(U7-NC-Pad3)*%
X52857000Y-48021000D03*
%TO.N,Net-(U4-Pad1)*%
X50317000Y-48021000D03*
D16*
%TO.N,Net-(R12-Pad2)*%
X47777000Y-48021000D03*
%TD*%
D11*
%TO.N,Net-(Q7-C)*%
%TO.C,R38*%
X48260000Y-137922000D03*
D10*
%TO.N,+5V*%
X48260000Y-130302000D03*
%TD*%
D11*
%TO.N,Net-(D14-A)*%
%TO.C,D14*%
X97536000Y-105918000D03*
D16*
%TO.N,Net-(D14-K)*%
X89916000Y-105918000D03*
%TD*%
%TO.N,Net-(R26-Pad2)*%
%TO.C,U11*%
X38608000Y-71304153D03*
D11*
%TO.N,GND_EXT*%
X38608000Y-73844153D03*
%TO.N,unconnected-(U11-NC-Pad3)*%
X38608000Y-76384153D03*
%TO.N,Net-(U1-LIN)*%
X46228000Y-76384153D03*
%TO.N,+5V*%
X46228000Y-73844153D03*
%TO.N,Net-(R28-Pad2)*%
X46228000Y-71304153D03*
%TD*%
%TO.N,Net-(D4-A)*%
%TO.C,R14*%
X96266000Y-32512000D03*
D10*
%TO.N,GND*%
X103886000Y-32512000D03*
%TD*%
D11*
%TO.N,Net-(D10-A)*%
%TO.C,R2*%
X97536000Y-68072000D03*
D10*
%TO.N,Net-(D10-K)*%
X89916000Y-68072000D03*
%TD*%
D11*
%TO.N,Net-(D8-K)*%
%TO.C,R22*%
X113792000Y-130810000D03*
D10*
%TO.N,GND*%
X113792000Y-138430000D03*
%TD*%
D11*
%TO.N,Net-(R10-Pad1)*%
%TO.C,R4*%
X121158000Y-63246000D03*
D10*
%TO.N,U*%
X113538000Y-63246000D03*
%TD*%
D11*
%TO.N,Net-(D8-K)*%
%TO.C,R20*%
X113792000Y-127000000D03*
D10*
%TO.N,W*%
X113792000Y-119380000D03*
%TD*%
D11*
%TO.N,Net-(R45-Pad1)*%
%TO.C,U8*%
X58943000Y-40376000D03*
%TO.N,Net-(R42-Pad1)*%
X61483000Y-40376000D03*
%TO.N,GND_EXT*%
X64023000Y-40376000D03*
%TO.N,unconnected-(U8-NC-Pad3)*%
X64023000Y-47996000D03*
%TO.N,Net-(U4-Pad7)*%
X61483000Y-47996000D03*
D16*
%TO.N,Net-(R19-Pad2)*%
X58943000Y-47996000D03*
%TD*%
D10*
%TO.N,Net-(D12-K)*%
%TO.C,R3*%
X89916000Y-88900000D03*
D11*
%TO.N,Net-(D12-A)*%
X97536000Y-88900000D03*
%TD*%
%TO.N,Net-(D6-A)*%
%TO.C,R16*%
X93472000Y-32512000D03*
D10*
%TO.N,Net-(R10-Pad1)*%
X85852000Y-32512000D03*
%TD*%
D11*
%TO.N,Net-(D8-A)*%
%TO.C,R21*%
X118872000Y-130810000D03*
D10*
%TO.N,Net-(R10-Pad1)*%
X118872000Y-138430000D03*
%TD*%
D11*
%TO.N,Net-(D11-A)*%
%TO.C,R1*%
X97536000Y-77978000D03*
D10*
%TO.N,Net-(D11-K)*%
X89916000Y-77978000D03*
%TD*%
D11*
%TO.N,+12V*%
%TO.C,D2*%
X80250000Y-92456000D03*
D16*
%TO.N,Net-(D2-K)*%
X80250000Y-84836000D03*
%TD*%
D11*
%TO.N,Net-(D6-A)*%
%TO.C,R18*%
X108712000Y-55880000D03*
D10*
%TO.N,GND*%
X116332000Y-55880000D03*
%TD*%
D21*
%TO.N,GND*%
%TO.C,Q6*%
X107696000Y-118293000D03*
%TO.N,W*%
X105156000Y-118293000D03*
D22*
%TO.N,Net-(D15-A)*%
X102616000Y-118293000D03*
%TD*%
D11*
%TO.N,+12V*%
%TO.C,D3*%
X80250000Y-114808000D03*
D16*
%TO.N,Net-(D3-K)*%
X80250000Y-107188000D03*
%TD*%
D11*
%TO.N,Net-(R19-Pad2)*%
%TO.C,R19*%
X65293000Y-52578000D03*
D10*
%TO.N,+5V*%
X57673000Y-52578000D03*
%TD*%
D11*
%TO.N,Net-(D8-A)*%
%TO.C,D8*%
X92964000Y-131064000D03*
D16*
%TO.N,Net-(D8-K)*%
X92964000Y-138684000D03*
%TD*%
D11*
%TO.N,Net-(D6-K)*%
%TO.C,R15*%
X105156000Y-55880000D03*
D10*
%TO.N,V*%
X97536000Y-55880000D03*
%TD*%
D11*
%TO.N,Net-(R25-Pad2)*%
%TO.C,U10*%
X46228000Y-61214000D03*
%TO.N,+5V*%
X46228000Y-63754000D03*
%TO.N,Net-(U1-HIN)*%
X46228000Y-66294000D03*
%TO.N,unconnected-(U10-NC-Pad3)*%
X38608000Y-66294000D03*
%TO.N,GND_EXT*%
X38608000Y-63754000D03*
D16*
%TO.N,Net-(R27-Pad2)*%
X38608000Y-61214000D03*
%TD*%
%TO.N,Net-(R34-Pad2)*%
%TO.C,U15*%
X38608000Y-111664765D03*
D11*
%TO.N,GND_EXT*%
X38608000Y-114204765D03*
%TO.N,unconnected-(U15-NC-Pad3)*%
X38608000Y-116744765D03*
%TO.N,Net-(U3-LIN)*%
X46228000Y-116744765D03*
%TO.N,+5V*%
X46228000Y-114204765D03*
%TO.N,Net-(R36-Pad2)*%
X46228000Y-111664765D03*
%TD*%
D10*
%TO.N,W*%
%TO.C,R9*%
X113284000Y-111252000D03*
D11*
%TO.N,Net-(R10-Pad1)*%
X120904000Y-111252000D03*
%TD*%
D10*
%TO.N,Net-(D14-K)*%
%TO.C,R7*%
X89916000Y-110744000D03*
D11*
%TO.N,Net-(D14-A)*%
X97536000Y-110744000D03*
%TD*%
%TO.N,Net-(D6-K)*%
%TO.C,D7*%
X112268000Y-51308000D03*
D16*
%TO.N,Net-(D6-A)*%
X112268000Y-43688000D03*
%TD*%
%TO.N,Net-(D13-K)*%
%TO.C,D13*%
X89916000Y-93980000D03*
D11*
%TO.N,Net-(D13-A)*%
X97536000Y-93980000D03*
%TD*%
%TO.N,Net-(D4-A)*%
%TO.C,R10*%
X93472000Y-38100000D03*
D10*
%TO.N,Net-(R10-Pad1)*%
X85852000Y-38100000D03*
%TD*%
D11*
%TO.N,unconnected-(U2-NC-Pad14)*%
%TO.C,U2*%
X62474000Y-99319000D03*
%TO.N,GND*%
X62474000Y-96779000D03*
%TO.N,Net-(U2-LIN)*%
X62474000Y-94239000D03*
%TO.N,Net-(Q7-C)*%
X62474000Y-91699000D03*
%TO.N,Net-(U2-HIN)*%
X62474000Y-89159000D03*
%TO.N,+5V*%
X62474000Y-86619000D03*
%TO.N,unconnected-(U2-NC-Pad8)*%
X62474000Y-84079000D03*
%TO.N,Net-(D12-K)*%
X70094000Y-84079000D03*
%TO.N,Net-(D2-K)*%
X70094000Y-86619000D03*
%TO.N,V*%
X70094000Y-89159000D03*
%TO.N,unconnected-(U2-NC-Pad4)*%
X70094000Y-91699000D03*
%TO.N,+12V*%
X70094000Y-94239000D03*
%TO.N,GND*%
X70094000Y-96779000D03*
D16*
%TO.N,Net-(D13-K)*%
X70094000Y-99319000D03*
%TD*%
D11*
%TO.N,Net-(D6-K)*%
%TO.C,R17*%
X106934000Y-38354000D03*
D10*
%TO.N,GND*%
X114554000Y-38354000D03*
%TD*%
%TO.N,V*%
%TO.C,R6*%
X113284000Y-73914000D03*
D11*
%TO.N,Net-(R10-Pad1)*%
X120904000Y-73914000D03*
%TD*%
%TO.N,Net-(D4-K)*%
%TO.C,D5*%
X86868000Y-51054000D03*
D16*
%TO.N,Net-(D4-A)*%
X86868000Y-43434000D03*
%TD*%
D11*
%TO.N,Net-(D4-A)*%
%TO.C,D4*%
X91440000Y-43434000D03*
D16*
%TO.N,Net-(D4-K)*%
X91440000Y-51054000D03*
%TD*%
D10*
%TO.N,Net-(D15-K)*%
%TO.C,R8*%
X89662000Y-120904000D03*
D11*
%TO.N,Net-(D15-A)*%
X97282000Y-120904000D03*
%TD*%
D23*
%TO.N,Net-(Q7-C)*%
%TO.C,Q7*%
X37846000Y-135382000D03*
%TO.N,Net-(Q7-B)*%
X36576000Y-135382000D03*
D24*
%TO.N,GND*%
X35306000Y-135382000D03*
%TD*%
D16*
%TO.N,Net-(R33-Pad2)*%
%TO.C,U14*%
X38608000Y-101574612D03*
D11*
%TO.N,GND_EXT*%
X38608000Y-104114612D03*
%TO.N,unconnected-(U14-NC-Pad3)*%
X38608000Y-106654612D03*
%TO.N,Net-(U3-HIN)*%
X46228000Y-106654612D03*
%TO.N,+5V*%
X46228000Y-104114612D03*
%TO.N,Net-(R35-Pad2)*%
X46228000Y-101574612D03*
%TD*%
D16*
%TO.N,Net-(D12-K)*%
%TO.C,D12*%
X89916000Y-84074000D03*
D11*
%TO.N,Net-(D12-A)*%
X97536000Y-84074000D03*
%TD*%
D16*
%TO.N,Net-(U4-Pad1)*%
%TO.C,U4*%
X95758000Y-43180000D03*
D11*
%TO.N,Net-(D4-A)*%
X95758000Y-45720000D03*
%TO.N,Net-(D4-K)*%
X95758000Y-48260000D03*
%TO.N,GND*%
X95758000Y-50800000D03*
%TO.N,Net-(D6-K)*%
X103378000Y-50800000D03*
%TO.N,Net-(D6-A)*%
X103378000Y-48260000D03*
%TO.N,Net-(U4-Pad7)*%
X103378000Y-45720000D03*
%TO.N,+5V*%
X103378000Y-43180000D03*
%TD*%
D22*
%TO.N,+12V*%
%TO.C,U6*%
X83820000Y-134112000D03*
D21*
%TO.N,GND*%
X81280000Y-134112000D03*
%TO.N,+5V*%
X78740000Y-134112000D03*
%TD*%
D11*
%TO.N,Net-(D4-K)*%
%TO.C,R11*%
X92964000Y-55626000D03*
D10*
%TO.N,U*%
X85344000Y-55626000D03*
%TD*%
D21*
%TO.N,V*%
%TO.C,Q3*%
X107696000Y-85919000D03*
%TO.N,+12V*%
X105156000Y-85919000D03*
D22*
%TO.N,Net-(D12-A)*%
X102616000Y-85919000D03*
%TD*%
D11*
%TO.N,Net-(D4-K)*%
%TO.C,R13*%
X107442000Y-32512000D03*
D10*
%TO.N,GND*%
X115062000Y-32512000D03*
%TD*%
D11*
%TO.N,Net-(R44-Pad1)*%
%TO.C,U9*%
X70134000Y-40376000D03*
%TO.N,Net-(R41-Pad1)*%
X72674000Y-40376000D03*
%TO.N,GND_EXT*%
X75214000Y-40376000D03*
%TO.N,unconnected-(U9-NC-Pad3)*%
X75214000Y-47996000D03*
%TO.N,Net-(U5-Pad1)*%
X72674000Y-47996000D03*
D16*
%TO.N,Net-(R24-Pad2)*%
X70134000Y-47996000D03*
%TD*%
D22*
%TO.N,Net-(D13-A)*%
%TO.C,Q4*%
X102616000Y-95758000D03*
D21*
%TO.N,V*%
X105156000Y-95758000D03*
%TO.N,GND*%
X107696000Y-95758000D03*
%TD*%
D11*
%TO.N,Net-(D6-A)*%
%TO.C,D6*%
X107950000Y-43688000D03*
D16*
%TO.N,Net-(D6-K)*%
X107950000Y-51308000D03*
%TD*%
D11*
%TO.N,+12V*%
%TO.C,D1*%
X80707113Y-70612000D03*
D16*
%TO.N,Net-(D1-K)*%
X80707113Y-62992000D03*
%TD*%
D11*
%TO.N,Net-(R31-Pad2)*%
%TO.C,U12*%
X46228000Y-81394306D03*
%TO.N,+5V*%
X46228000Y-83934306D03*
%TO.N,Net-(U2-HIN)*%
X46228000Y-86474306D03*
%TO.N,unconnected-(U12-NC-Pad3)*%
X38608000Y-86474306D03*
%TO.N,GND_EXT*%
X38608000Y-83934306D03*
D16*
%TO.N,Net-(R29-Pad2)*%
X38608000Y-81394306D03*
%TD*%
D21*
%TO.N,W*%
%TO.C,Q5*%
X107696000Y-107950000D03*
%TO.N,+12V*%
X105156000Y-107950000D03*
D22*
%TO.N,Net-(D14-A)*%
X102616000Y-107950000D03*
%TD*%
%TO.N,Net-(D11-A)*%
%TO.C,Q2*%
X102616000Y-75692000D03*
D21*
%TO.N,U*%
X105156000Y-75692000D03*
%TO.N,GND*%
X107696000Y-75692000D03*
%TD*%
D11*
%TO.N,+5V*%
%TO.C,U5*%
X108722000Y-130820000D03*
%TO.N,GND*%
X108722000Y-133360000D03*
X108722000Y-135900000D03*
X108722000Y-138440000D03*
X101102000Y-138440000D03*
%TO.N,Net-(D8-K)*%
X101102000Y-135900000D03*
%TO.N,Net-(D8-A)*%
X101102000Y-133360000D03*
D16*
%TO.N,Net-(U5-Pad1)*%
X101102000Y-130820000D03*
%TD*%
D11*
%TO.N,Net-(D15-A)*%
%TO.C,D15*%
X97282000Y-116332000D03*
D16*
%TO.N,Net-(D15-K)*%
X89662000Y-116332000D03*
%TD*%
D11*
%TO.N,Net-(D8-K)*%
%TO.C,D9*%
X97028000Y-138684000D03*
D16*
%TO.N,Net-(D8-A)*%
X97028000Y-131064000D03*
%TD*%
D11*
%TO.N,Net-(D10-A)*%
%TO.C,D10*%
X97536000Y-63246000D03*
D16*
%TO.N,Net-(D10-K)*%
X89916000Y-63246000D03*
%TD*%
D11*
%TO.N,Net-(D8-A)*%
%TO.C,R23*%
X118872000Y-127000000D03*
D10*
%TO.N,GND*%
X118872000Y-119380000D03*
%TD*%
D22*
%TO.N,Net-(D10-A)*%
%TO.C,Q1*%
X102616000Y-65207000D03*
D21*
%TO.N,+12V*%
X105156000Y-65207000D03*
%TO.N,U*%
X107696000Y-65207000D03*
%TD*%
D10*
%TO.N,Net-(D13-K)*%
%TO.C,R5*%
X89916000Y-98552000D03*
D11*
%TO.N,Net-(D13-A)*%
X97536000Y-98552000D03*
%TD*%
%TO.N,Net-(R32-Pad2)*%
%TO.C,U13*%
X46228000Y-91484459D03*
%TO.N,+5V*%
X46228000Y-94024459D03*
%TO.N,Net-(U2-LIN)*%
X46228000Y-96564459D03*
%TO.N,unconnected-(U13-NC-Pad3)*%
X38608000Y-96564459D03*
%TO.N,GND_EXT*%
X38608000Y-94024459D03*
D16*
%TO.N,Net-(R30-Pad2)*%
X38608000Y-91484459D03*
%TD*%
D11*
%TO.N,Net-(Q7-B)*%
%TO.C,R37*%
X43180000Y-130302000D03*
D10*
%TO.N,+5V*%
X43180000Y-137922000D03*
%TD*%
D11*
%TO.N,unconnected-(U3-NC-Pad14)*%
%TO.C,U3*%
X62474000Y-121350000D03*
%TO.N,GND*%
X62474000Y-118810000D03*
%TO.N,Net-(U3-LIN)*%
X62474000Y-116270000D03*
%TO.N,Net-(Q7-C)*%
X62474000Y-113730000D03*
%TO.N,Net-(U3-HIN)*%
X62474000Y-111190000D03*
%TO.N,+5V*%
X62474000Y-108650000D03*
%TO.N,unconnected-(U3-NC-Pad8)*%
X62474000Y-106110000D03*
%TO.N,Net-(D14-K)*%
X70094000Y-106110000D03*
%TO.N,Net-(D3-K)*%
X70094000Y-108650000D03*
%TO.N,W*%
X70094000Y-111190000D03*
%TO.N,unconnected-(U3-NC-Pad4)*%
X70094000Y-113730000D03*
%TO.N,+12V*%
X70094000Y-116270000D03*
%TO.N,GND*%
X70094000Y-118810000D03*
D16*
%TO.N,Net-(D15-K)*%
X70094000Y-121350000D03*
%TD*%
D11*
%TO.N,Net-(D11-A)*%
%TO.C,D11*%
X97536000Y-73406000D03*
D16*
%TO.N,Net-(D11-K)*%
X89916000Y-73406000D03*
%TD*%
D11*
%TO.N,unconnected-(U1-NC-Pad14)*%
%TO.C,U1*%
X62484000Y-76962000D03*
%TO.N,GND*%
X62484000Y-74422000D03*
%TO.N,Net-(U1-LIN)*%
X62484000Y-71882000D03*
%TO.N,Net-(Q7-C)*%
X62484000Y-69342000D03*
%TO.N,Net-(U1-HIN)*%
X62484000Y-66802000D03*
%TO.N,+5V*%
X62484000Y-64262000D03*
%TO.N,unconnected-(U1-NC-Pad8)*%
X62484000Y-61722000D03*
%TO.N,Net-(D10-K)*%
X70104000Y-61722000D03*
%TO.N,Net-(D1-K)*%
X70104000Y-64262000D03*
%TO.N,U*%
X70104000Y-66802000D03*
%TO.N,unconnected-(U1-NC-Pad4)*%
X70104000Y-69342000D03*
%TO.N,+12V*%
X70104000Y-71882000D03*
%TO.N,GND*%
X70104000Y-74422000D03*
D16*
%TO.N,Net-(D11-K)*%
X70104000Y-76962000D03*
%TD*%
D11*
%TO.N,GND*%
%TO.C,R39*%
X53594000Y-137922000D03*
D10*
%TO.N,Net-(Q7-B)*%
X53594000Y-130302000D03*
%TD*%
D25*
%TO.N,W*%
X95250000Y-113030000D03*
X91186000Y-113284000D03*
%TO.N,V*%
X94742000Y-90678000D03*
X91694000Y-90678000D03*
%TO.N,Net-(U5-Pad1)*%
X93218000Y-59436000D03*
X92964000Y-70866000D03*
%TD*%
M02*
