%TF.GenerationSoftware,KiCad,Pcbnew,8.0.7*%
%TF.CreationDate,2025-01-10T09:52:23-05:00*%
%TF.ProjectId,esc,6573632e-6b69-4636-9164-5f7063625858,rev?*%
%TF.SameCoordinates,Original*%
%TF.FileFunction,Soldermask,Bot*%
%TF.FilePolarity,Negative*%
%FSLAX46Y46*%
G04 Gerber Fmt 4.6, Leading zero omitted, Abs format (unit mm)*
G04 Created by KiCad (PCBNEW 8.0.7) date 2025-01-10 09:52:23*
%MOMM*%
%LPD*%
G01*
G04 APERTURE LIST*
%ADD10C,1.600000*%
%ADD11O,1.600000X1.600000*%
%ADD12C,3.200000*%
%ADD13R,2.600000X2.600000*%
%ADD14C,2.600000*%
%ADD15C,2.300000*%
%ADD16R,2.300000X2.300000*%
%ADD17R,1.600000X1.600000*%
%ADD18C,1.400000*%
%ADD19O,1.400000X1.400000*%
%ADD20O,1.700000X1.700000*%
%ADD21R,1.700000X1.700000*%
%ADD22O,1.905000X2.000000*%
%ADD23R,1.905000X2.000000*%
%ADD24O,1.050000X1.500000*%
%ADD25R,1.050000X1.500000*%
G04 APERTURE END LIST*
D10*
%TO.C,R34*%
X35306000Y-118110000D03*
D11*
X35306000Y-110490000D03*
%TD*%
D10*
%TO.C,R33*%
X35306000Y-108204000D03*
D11*
X35306000Y-100584000D03*
%TD*%
D10*
%TO.C,R30*%
X35306000Y-98044000D03*
D11*
X35306000Y-90424000D03*
%TD*%
D10*
%TO.C,R29*%
X35306000Y-87884000D03*
D11*
X35306000Y-80264000D03*
%TD*%
D10*
%TO.C,R26*%
X35306000Y-77724000D03*
D11*
X35306000Y-70104000D03*
%TD*%
D10*
%TO.C,R27*%
X35306000Y-67564000D03*
D11*
X35306000Y-59944000D03*
%TD*%
D12*
%TO.C,REF\u002A\u002A*%
X124000000Y-28000000D03*
%TD*%
%TO.C,REF\u002A\u002A*%
X124000000Y-140000000D03*
%TD*%
%TO.C,REF\u002A\u002A*%
X28956000Y-140000000D03*
%TD*%
%TO.C,REF\u002A\u002A*%
X29000000Y-28000000D03*
%TD*%
D13*
%TO.C,J3*%
X117856000Y-100894000D03*
D14*
X117856000Y-104394000D03*
%TD*%
D15*
%TO.C,J2*%
X117856000Y-93726000D03*
X117856000Y-90226000D03*
D16*
X117856000Y-86726000D03*
%TD*%
D10*
%TO.C,C12*%
X80264000Y-120904000D03*
X85264000Y-120904000D03*
%TD*%
%TO.C,C18*%
X97068000Y-38100000D03*
X102068000Y-38100000D03*
%TD*%
%TO.C,C17*%
X102402000Y-125730000D03*
X107402000Y-125730000D03*
%TD*%
%TO.C,C16*%
X88098000Y-130048000D03*
X83098000Y-130048000D03*
%TD*%
%TO.C,C14*%
X75224000Y-130048000D03*
X80224000Y-130048000D03*
%TD*%
%TO.C,C9*%
X57658000Y-105450000D03*
X57658000Y-110450000D03*
%TD*%
%TO.C,C8*%
X80050000Y-98552000D03*
X85050000Y-98552000D03*
%TD*%
%TO.C,C5*%
X57404000Y-66254000D03*
X57404000Y-61254000D03*
%TD*%
%TO.C,C4*%
X57404000Y-88606000D03*
X57404000Y-83606000D03*
%TD*%
%TO.C,C3*%
X79771113Y-75946000D03*
X84771113Y-75946000D03*
%TD*%
%TO.C,C15*%
X68890000Y-134874000D03*
D17*
X72390000Y-134874000D03*
%TD*%
D10*
%TO.C,C13*%
X35281113Y-127254000D03*
D17*
X37781113Y-127254000D03*
%TD*%
%TO.C,C11*%
X75881113Y-117602000D03*
D10*
X73381113Y-117602000D03*
%TD*%
D17*
%TO.C,C10*%
X75946000Y-109220000D03*
D10*
X73446000Y-109220000D03*
%TD*%
D17*
%TO.C,C7*%
X75881113Y-87122000D03*
D10*
X73381113Y-87122000D03*
%TD*%
D17*
%TO.C,C6*%
X75881113Y-96012000D03*
D10*
X73381113Y-96012000D03*
%TD*%
D17*
%TO.C,C2*%
X75881113Y-64516000D03*
D10*
X73381113Y-64516000D03*
%TD*%
D17*
%TO.C,C1*%
X75881113Y-73406000D03*
D10*
X73381113Y-73406000D03*
%TD*%
%TO.C,R24*%
X76723000Y-52578000D03*
D11*
X69103000Y-52578000D03*
%TD*%
D18*
%TO.C,R46*%
X46801000Y-36068000D03*
D19*
X49341000Y-36068000D03*
%TD*%
D18*
%TO.C,R45*%
X57723000Y-36068000D03*
D19*
X60263000Y-36068000D03*
%TD*%
D18*
%TO.C,R44*%
X68899000Y-36068000D03*
D19*
X71439000Y-36068000D03*
%TD*%
D18*
%TO.C,R43*%
X51881000Y-36068000D03*
D19*
X54421000Y-36068000D03*
%TD*%
D18*
%TO.C,R42*%
X62803000Y-36068000D03*
D19*
X65343000Y-36068000D03*
%TD*%
D18*
%TO.C,R41*%
X73979000Y-36068000D03*
D19*
X76519000Y-36068000D03*
%TD*%
D20*
%TO.C,J1*%
X34290000Y-55626000D03*
X34290000Y-53086000D03*
X34290000Y-50546000D03*
X34290000Y-48006000D03*
X34290000Y-45466000D03*
X34290000Y-42926000D03*
X34290000Y-40386000D03*
X34290000Y-37846000D03*
X34290000Y-35306000D03*
D21*
X34290000Y-32766000D03*
%TD*%
D18*
%TO.C,R52*%
X50292000Y-117552000D03*
D19*
X50292000Y-115012000D03*
%TD*%
D18*
%TO.C,R51*%
X50292000Y-107646000D03*
D19*
X50292000Y-105106000D03*
%TD*%
D18*
%TO.C,R50*%
X50292000Y-97486000D03*
D19*
X50292000Y-94946000D03*
%TD*%
D18*
%TO.C,R49*%
X50292000Y-87580000D03*
D19*
X50292000Y-85040000D03*
%TD*%
D18*
%TO.C,R48*%
X50292000Y-77420000D03*
D19*
X50292000Y-74880000D03*
%TD*%
D18*
%TO.C,R47*%
X50292000Y-67514000D03*
D19*
X50292000Y-64974000D03*
%TD*%
D18*
%TO.C,R36*%
X50292000Y-112726000D03*
D19*
X50292000Y-110186000D03*
%TD*%
D18*
%TO.C,R35*%
X50292000Y-102566000D03*
D19*
X50292000Y-100026000D03*
%TD*%
D18*
%TO.C,R32*%
X50292000Y-92660000D03*
D19*
X50292000Y-90120000D03*
%TD*%
%TO.C,R31*%
X50292000Y-79960000D03*
D18*
X50292000Y-82500000D03*
%TD*%
D19*
%TO.C,R28*%
X50292000Y-69800000D03*
D18*
X50292000Y-72340000D03*
%TD*%
D19*
%TO.C,R25*%
X50292000Y-62534000D03*
D18*
X50292000Y-59994000D03*
%TD*%
D10*
%TO.C,R12*%
X46243000Y-52578000D03*
D11*
X53863000Y-52578000D03*
%TD*%
%TO.C,U7*%
X47777000Y-40401000D03*
X50317000Y-40401000D03*
X52857000Y-40401000D03*
X52857000Y-48021000D03*
X50317000Y-48021000D03*
D17*
X47777000Y-48021000D03*
%TD*%
D11*
%TO.C,R38*%
X48260000Y-137922000D03*
D10*
X48260000Y-130302000D03*
%TD*%
D11*
%TO.C,D14*%
X97536000Y-105918000D03*
D17*
X89916000Y-105918000D03*
%TD*%
%TO.C,U11*%
X38608000Y-71304153D03*
D11*
X38608000Y-73844153D03*
X38608000Y-76384153D03*
X46228000Y-76384153D03*
X46228000Y-73844153D03*
X46228000Y-71304153D03*
%TD*%
%TO.C,R14*%
X96266000Y-32512000D03*
D10*
X103886000Y-32512000D03*
%TD*%
D11*
%TO.C,R2*%
X97536000Y-68072000D03*
D10*
X89916000Y-68072000D03*
%TD*%
D11*
%TO.C,R22*%
X113792000Y-130810000D03*
D10*
X113792000Y-138430000D03*
%TD*%
D11*
%TO.C,R4*%
X121158000Y-63246000D03*
D10*
X113538000Y-63246000D03*
%TD*%
D11*
%TO.C,R20*%
X113792000Y-127000000D03*
D10*
X113792000Y-119380000D03*
%TD*%
D11*
%TO.C,U8*%
X58943000Y-40376000D03*
X61483000Y-40376000D03*
X64023000Y-40376000D03*
X64023000Y-47996000D03*
X61483000Y-47996000D03*
D17*
X58943000Y-47996000D03*
%TD*%
D10*
%TO.C,R3*%
X89916000Y-88900000D03*
D11*
X97536000Y-88900000D03*
%TD*%
%TO.C,R16*%
X93472000Y-32512000D03*
D10*
X85852000Y-32512000D03*
%TD*%
D11*
%TO.C,R21*%
X118872000Y-130810000D03*
D10*
X118872000Y-138430000D03*
%TD*%
D11*
%TO.C,R1*%
X97536000Y-77978000D03*
D10*
X89916000Y-77978000D03*
%TD*%
D11*
%TO.C,D2*%
X80250000Y-92456000D03*
D17*
X80250000Y-84836000D03*
%TD*%
D11*
%TO.C,R18*%
X108712000Y-55880000D03*
D10*
X116332000Y-55880000D03*
%TD*%
D22*
%TO.C,Q6*%
X107696000Y-118293000D03*
X105156000Y-118293000D03*
D23*
X102616000Y-118293000D03*
%TD*%
D11*
%TO.C,D3*%
X80250000Y-114808000D03*
D17*
X80250000Y-107188000D03*
%TD*%
D11*
%TO.C,R19*%
X65293000Y-52578000D03*
D10*
X57673000Y-52578000D03*
%TD*%
D11*
%TO.C,D8*%
X92964000Y-131064000D03*
D17*
X92964000Y-138684000D03*
%TD*%
D11*
%TO.C,R15*%
X105156000Y-55880000D03*
D10*
X97536000Y-55880000D03*
%TD*%
D11*
%TO.C,U10*%
X46228000Y-61214000D03*
X46228000Y-63754000D03*
X46228000Y-66294000D03*
X38608000Y-66294000D03*
X38608000Y-63754000D03*
D17*
X38608000Y-61214000D03*
%TD*%
%TO.C,U15*%
X38608000Y-111664765D03*
D11*
X38608000Y-114204765D03*
X38608000Y-116744765D03*
X46228000Y-116744765D03*
X46228000Y-114204765D03*
X46228000Y-111664765D03*
%TD*%
D10*
%TO.C,R9*%
X113284000Y-111252000D03*
D11*
X120904000Y-111252000D03*
%TD*%
D10*
%TO.C,R7*%
X89916000Y-110744000D03*
D11*
X97536000Y-110744000D03*
%TD*%
%TO.C,D7*%
X112268000Y-51308000D03*
D17*
X112268000Y-43688000D03*
%TD*%
%TO.C,D13*%
X89916000Y-93980000D03*
D11*
X97536000Y-93980000D03*
%TD*%
%TO.C,R10*%
X93472000Y-38100000D03*
D10*
X85852000Y-38100000D03*
%TD*%
D11*
%TO.C,U2*%
X62474000Y-99319000D03*
X62474000Y-96779000D03*
X62474000Y-94239000D03*
X62474000Y-91699000D03*
X62474000Y-89159000D03*
X62474000Y-86619000D03*
X62474000Y-84079000D03*
X70094000Y-84079000D03*
X70094000Y-86619000D03*
X70094000Y-89159000D03*
X70094000Y-91699000D03*
X70094000Y-94239000D03*
X70094000Y-96779000D03*
D17*
X70094000Y-99319000D03*
%TD*%
D11*
%TO.C,R17*%
X106934000Y-38354000D03*
D10*
X114554000Y-38354000D03*
%TD*%
%TO.C,R6*%
X113284000Y-73914000D03*
D11*
X120904000Y-73914000D03*
%TD*%
%TO.C,D5*%
X86868000Y-51054000D03*
D17*
X86868000Y-43434000D03*
%TD*%
D11*
%TO.C,D4*%
X91440000Y-43434000D03*
D17*
X91440000Y-51054000D03*
%TD*%
D10*
%TO.C,R8*%
X89662000Y-120904000D03*
D11*
X97282000Y-120904000D03*
%TD*%
D24*
%TO.C,Q7*%
X37846000Y-135382000D03*
X36576000Y-135382000D03*
D25*
X35306000Y-135382000D03*
%TD*%
D17*
%TO.C,U14*%
X38608000Y-101574612D03*
D11*
X38608000Y-104114612D03*
X38608000Y-106654612D03*
X46228000Y-106654612D03*
X46228000Y-104114612D03*
X46228000Y-101574612D03*
%TD*%
D17*
%TO.C,D12*%
X89916000Y-84074000D03*
D11*
X97536000Y-84074000D03*
%TD*%
D17*
%TO.C,U4*%
X95758000Y-43180000D03*
D11*
X95758000Y-45720000D03*
X95758000Y-48260000D03*
X95758000Y-50800000D03*
X103378000Y-50800000D03*
X103378000Y-48260000D03*
X103378000Y-45720000D03*
X103378000Y-43180000D03*
%TD*%
D23*
%TO.C,U6*%
X83820000Y-134112000D03*
D22*
X81280000Y-134112000D03*
X78740000Y-134112000D03*
%TD*%
D11*
%TO.C,R11*%
X92964000Y-55626000D03*
D10*
X85344000Y-55626000D03*
%TD*%
D22*
%TO.C,Q3*%
X107696000Y-85919000D03*
X105156000Y-85919000D03*
D23*
X102616000Y-85919000D03*
%TD*%
D11*
%TO.C,R13*%
X107442000Y-32512000D03*
D10*
X115062000Y-32512000D03*
%TD*%
D11*
%TO.C,U9*%
X70134000Y-40376000D03*
X72674000Y-40376000D03*
X75214000Y-40376000D03*
X75214000Y-47996000D03*
X72674000Y-47996000D03*
D17*
X70134000Y-47996000D03*
%TD*%
D23*
%TO.C,Q4*%
X102616000Y-95758000D03*
D22*
X105156000Y-95758000D03*
X107696000Y-95758000D03*
%TD*%
D11*
%TO.C,D6*%
X107950000Y-43688000D03*
D17*
X107950000Y-51308000D03*
%TD*%
D11*
%TO.C,D1*%
X80707113Y-70612000D03*
D17*
X80707113Y-62992000D03*
%TD*%
D11*
%TO.C,U12*%
X46228000Y-81394306D03*
X46228000Y-83934306D03*
X46228000Y-86474306D03*
X38608000Y-86474306D03*
X38608000Y-83934306D03*
D17*
X38608000Y-81394306D03*
%TD*%
D22*
%TO.C,Q5*%
X107696000Y-107950000D03*
X105156000Y-107950000D03*
D23*
X102616000Y-107950000D03*
%TD*%
%TO.C,Q2*%
X102616000Y-75692000D03*
D22*
X105156000Y-75692000D03*
X107696000Y-75692000D03*
%TD*%
D11*
%TO.C,U5*%
X108722000Y-130820000D03*
X108722000Y-133360000D03*
X108722000Y-135900000D03*
X108722000Y-138440000D03*
X101102000Y-138440000D03*
X101102000Y-135900000D03*
X101102000Y-133360000D03*
D17*
X101102000Y-130820000D03*
%TD*%
D11*
%TO.C,D15*%
X97282000Y-116332000D03*
D17*
X89662000Y-116332000D03*
%TD*%
D11*
%TO.C,D9*%
X97028000Y-138684000D03*
D17*
X97028000Y-131064000D03*
%TD*%
D11*
%TO.C,D10*%
X97536000Y-63246000D03*
D17*
X89916000Y-63246000D03*
%TD*%
D11*
%TO.C,R23*%
X118872000Y-127000000D03*
D10*
X118872000Y-119380000D03*
%TD*%
D23*
%TO.C,Q1*%
X102616000Y-65207000D03*
D22*
X105156000Y-65207000D03*
X107696000Y-65207000D03*
%TD*%
D10*
%TO.C,R5*%
X89916000Y-98552000D03*
D11*
X97536000Y-98552000D03*
%TD*%
%TO.C,U13*%
X46228000Y-91484459D03*
X46228000Y-94024459D03*
X46228000Y-96564459D03*
X38608000Y-96564459D03*
X38608000Y-94024459D03*
D17*
X38608000Y-91484459D03*
%TD*%
D11*
%TO.C,R37*%
X43180000Y-130302000D03*
D10*
X43180000Y-137922000D03*
%TD*%
D11*
%TO.C,U3*%
X62474000Y-121350000D03*
X62474000Y-118810000D03*
X62474000Y-116270000D03*
X62474000Y-113730000D03*
X62474000Y-111190000D03*
X62474000Y-108650000D03*
X62474000Y-106110000D03*
X70094000Y-106110000D03*
X70094000Y-108650000D03*
X70094000Y-111190000D03*
X70094000Y-113730000D03*
X70094000Y-116270000D03*
X70094000Y-118810000D03*
D17*
X70094000Y-121350000D03*
%TD*%
D11*
%TO.C,D11*%
X97536000Y-73406000D03*
D17*
X89916000Y-73406000D03*
%TD*%
D11*
%TO.C,U1*%
X62484000Y-76962000D03*
X62484000Y-74422000D03*
X62484000Y-71882000D03*
X62484000Y-69342000D03*
X62484000Y-66802000D03*
X62484000Y-64262000D03*
X62484000Y-61722000D03*
X70104000Y-61722000D03*
X70104000Y-64262000D03*
X70104000Y-66802000D03*
X70104000Y-69342000D03*
X70104000Y-71882000D03*
X70104000Y-74422000D03*
D17*
X70104000Y-76962000D03*
%TD*%
D11*
%TO.C,R39*%
X53594000Y-137922000D03*
D10*
X53594000Y-130302000D03*
%TD*%
M02*
