M48
; DRILL file {KiCad 8.0.7} date 2025-01-10T08:42:09-0500
; FORMAT={-:-/ absolute / inch / decimal}
; #@! TF.CreationDate,2025-01-10T08:42:09-05:00
; #@! TF.GenerationSoftware,Kicad,Pcbnew,8.0.7
; #@! TF.FileFunction,Plated,1,4,PTH
FMAT,2
INCH
; #@! TA.AperFunction,Plated,PTH,ViaDrill
T1C0.0118
; #@! TA.AperFunction,Plated,PTH,ComponentDrill
T2C0.0276
; #@! TA.AperFunction,Plated,PTH,ComponentDrill
T3C0.0295
; #@! TA.AperFunction,Plated,PTH,ComponentDrill
T4C0.0315
; #@! TA.AperFunction,Plated,PTH,ComponentDrill
T5C0.0394
; #@! TA.AperFunction,Plated,PTH,ComponentDrill
T6C0.0433
; #@! TA.AperFunction,Plated,PTH,ComponentDrill
T7C0.0472
; #@! TA.AperFunction,Plated,PTH,ComponentDrill
T8C0.0512
%
G90
G05
T1
X3.59Y-4.46
X3.61Y-3.57
X3.66Y-2.79
X3.67Y-2.34
X3.73Y-3.57
X3.75Y-4.45
T2
X1.8426Y-1.42
X1.9426Y-1.42
X1.98Y-2.362
X1.98Y-2.462
X1.98Y-2.558
X1.98Y-2.658
X1.98Y-2.748
X1.98Y-2.848
X1.98Y-2.948
X1.98Y-3.048
X1.98Y-3.148
X1.98Y-3.248
X1.98Y-3.348
X1.98Y-3.448
X1.98Y-3.548
X1.98Y-3.648
X1.98Y-3.738
X1.98Y-3.838
X1.98Y-3.938
X1.98Y-4.038
X1.98Y-4.138
X1.98Y-4.238
X1.98Y-4.338
X1.98Y-4.438
X1.98Y-4.528
X1.98Y-4.628
X2.0426Y-1.42
X2.1426Y-1.42
X2.2726Y-1.42
X2.3726Y-1.42
X2.4726Y-1.42
X2.5726Y-1.42
X2.7126Y-1.42
X2.8126Y-1.42
X2.9126Y-1.42
X3.0126Y-1.42
T3
X1.39Y-5.33
X1.44Y-5.33
X1.49Y-5.33
T4
X1.389Y-5.01
X1.39Y-2.36
X1.39Y-2.66
X1.39Y-2.76
X1.39Y-3.06
X1.39Y-3.16
X1.39Y-3.46
X1.39Y-3.56
X1.39Y-3.86
X1.39Y-3.96
X1.39Y-4.26
X1.39Y-4.35
X1.39Y-4.65
X1.4874Y-5.01
X1.52Y-2.41
X1.52Y-2.51
X1.52Y-2.61
X1.52Y-2.8073
X1.52Y-2.9073
X1.52Y-3.0073
X1.52Y-3.2045
X1.52Y-3.3045
X1.52Y-3.4045
X1.52Y-3.6018
X1.52Y-3.7018
X1.52Y-3.8018
X1.52Y-3.999
X1.52Y-4.099
X1.52Y-4.199
X1.52Y-4.3963
X1.52Y-4.4963
X1.52Y-4.5963
X1.7Y-5.13
X1.7Y-5.43
X1.82Y-2.41
X1.82Y-2.51
X1.82Y-2.61
X1.82Y-2.8073
X1.82Y-2.9073
X1.82Y-3.0073
X1.82Y-3.2045
X1.82Y-3.3045
X1.82Y-3.4045
X1.82Y-3.6018
X1.82Y-3.7018
X1.82Y-3.8018
X1.82Y-3.999
X1.82Y-4.099
X1.82Y-4.199
X1.82Y-4.3963
X1.82Y-4.4963
X1.82Y-4.5963
X1.8206Y-2.07
X1.881Y-1.5906
X1.881Y-1.8906
X1.9Y-5.13
X1.9Y-5.43
X1.981Y-1.5906
X1.981Y-1.8906
X2.081Y-1.5906
X2.081Y-1.8906
X2.11Y-5.13
X2.11Y-5.43
X2.1206Y-2.07
X2.26Y-2.4116
X2.26Y-2.6084
X2.26Y-3.2916
X2.26Y-3.4884
X2.27Y-4.1516
X2.27Y-4.3484
X2.2706Y-2.07
X2.3206Y-1.5896
X2.3206Y-1.8896
X2.4206Y-1.5896
X2.4206Y-1.8896
X2.4596Y-3.3102
X2.4596Y-3.4102
X2.4596Y-3.5102
X2.4596Y-3.6102
X2.4596Y-3.7102
X2.4596Y-3.8102
X2.4596Y-3.9102
X2.4596Y-4.1776
X2.4596Y-4.2776
X2.4596Y-4.3776
X2.4596Y-4.4776
X2.4596Y-4.5776
X2.4596Y-4.6776
X2.4596Y-4.7776
X2.46Y-2.43
X2.46Y-2.53
X2.46Y-2.63
X2.46Y-2.73
X2.46Y-2.83
X2.46Y-2.93
X2.46Y-3.03
X2.5206Y-1.5896
X2.5206Y-1.8896
X2.5706Y-2.07
X2.7122Y-5.31
X2.7206Y-2.07
X2.7596Y-3.3102
X2.7596Y-3.4102
X2.7596Y-3.5102
X2.7596Y-3.6102
X2.7596Y-3.7102
X2.7596Y-3.8102
X2.7596Y-3.9102
X2.7596Y-4.1776
X2.7596Y-4.2776
X2.7596Y-4.3776
X2.7596Y-4.4776
X2.7596Y-4.5776
X2.7596Y-4.6776
X2.7596Y-4.7776
X2.76Y-2.43
X2.76Y-2.53
X2.76Y-2.63
X2.76Y-2.73
X2.76Y-2.83
X2.76Y-2.93
X2.76Y-3.03
X2.7612Y-1.5896
X2.7612Y-1.8896
X2.85Y-5.31
X2.8612Y-1.5896
X2.8612Y-1.8896
X2.889Y-2.54
X2.889Y-2.89
X2.889Y-3.43
X2.889Y-3.78
X2.889Y-4.63
X2.8916Y-4.3
X2.9612Y-1.5896
X2.9612Y-1.8896
X2.9616Y-5.12
X2.9874Y-2.54
X2.9874Y-2.89
X2.9874Y-3.43
X2.9874Y-3.78
X2.9874Y-4.63
X2.99Y-4.3
X3.0206Y-2.07
X3.1406Y-2.99
X3.1516Y-3.88
X3.1584Y-5.12
X3.1594Y-3.34
X3.1594Y-3.64
X3.1594Y-4.22
X3.1594Y-4.52
X3.16Y-4.76
X3.1774Y-2.48
X3.1774Y-2.78
X3.2716Y-5.12
X3.3374Y-2.99
X3.3484Y-3.88
X3.3569Y-4.76
X3.36Y-2.19
X3.38Y-1.28
X3.38Y-1.5
X3.42Y-1.71
X3.42Y-2.01
X3.4684Y-5.12
X3.53Y-4.58
X3.53Y-4.76
X3.54Y-2.49
X3.54Y-2.68
X3.54Y-2.89
X3.54Y-3.07
X3.54Y-3.31
X3.54Y-3.5
X3.54Y-3.7
X3.54Y-3.88
X3.54Y-4.17
X3.54Y-4.36
X3.6Y-1.71
X3.6Y-2.01
X3.66Y-2.19
X3.66Y-5.16
X3.66Y-5.46
X3.68Y-1.28
X3.68Y-1.5
X3.77Y-1.7
X3.77Y-1.8
X3.77Y-1.9
X3.77Y-2.0
X3.79Y-1.28
X3.82Y-5.16
X3.82Y-5.46
X3.8216Y-1.5
X3.83Y-4.58
X3.83Y-4.76
X3.84Y-2.2
X3.84Y-2.49
X3.84Y-2.68
X3.84Y-2.89
X3.84Y-3.07
X3.84Y-3.31
X3.84Y-3.5
X3.84Y-3.7
X3.84Y-3.88
X3.84Y-4.17
X3.84Y-4.36
X3.9804Y-5.1504
X3.9804Y-5.2504
X3.9804Y-5.3504
X3.9804Y-5.4504
X4.0184Y-1.5
X4.0316Y-4.95
X4.07Y-1.7
X4.07Y-1.8
X4.07Y-1.9
X4.07Y-2.0
X4.09Y-1.28
X4.14Y-2.2
X4.21Y-1.51
X4.2284Y-4.95
X4.23Y-1.28
X4.25Y-1.72
X4.25Y-2.02
X4.28Y-2.2
X4.2804Y-5.1504
X4.2804Y-5.2504
X4.2804Y-5.3504
X4.2804Y-5.4504
X4.42Y-1.72
X4.42Y-2.02
X4.46Y-2.91
X4.46Y-4.38
X4.47Y-2.49
X4.48Y-4.7
X4.48Y-5.0
X4.48Y-5.15
X4.48Y-5.45
X4.51Y-1.51
X4.53Y-1.28
X4.58Y-2.2
X4.68Y-4.7
X4.68Y-5.0
X4.68Y-5.15
X4.68Y-5.45
X4.76Y-2.91
X4.76Y-4.38
X4.77Y-2.49
T5
X1.35Y-1.29
X1.35Y-1.39
X1.35Y-1.49
X1.35Y-1.59
X1.35Y-1.69
X1.35Y-1.79
X1.35Y-1.89
X1.35Y-1.99
X1.35Y-2.09
X1.35Y-2.19
T6
X3.1Y-5.28
X3.2Y-5.28
X3.3Y-5.28
X4.04Y-2.5672
X4.04Y-2.98
X4.04Y-3.3826
X4.04Y-3.77
X4.04Y-4.25
X4.04Y-4.6572
X4.14Y-2.5672
X4.14Y-2.98
X4.14Y-3.3826
X4.14Y-3.77
X4.14Y-4.25
X4.14Y-4.6572
X4.24Y-2.5672
X4.24Y-2.98
X4.24Y-3.3826
X4.24Y-3.77
X4.24Y-4.25
X4.24Y-4.6572
T7
X4.64Y-3.4144
X4.64Y-3.5522
X4.64Y-3.69
T8
X4.64Y-3.9722
X4.64Y-4.11
M30
